<svg xmlns="http://www.w3.org/2000/svg" height="35" viewBox="0 0 512 512" width="35"><style>.a{fill:#474f54;}.b{fill:#dfe7f4;}.c{fill:#c7cfe1;}</style><path d="m286 421h-286v-421h316l-30 25.6z" class="a"/><path d="m121 90 30 15h165v-105z" fill="#ff6a4d"/><path d="m316 90h-195v422h195 196v-422z" fill="#575f64"/><path d="m316 90h196v422h-196z" class="a"/><path d="m316 181h-15v60h15 15v-60z" class="b"/><path d="m316 181h15v60h-15z" class="c"/><path d="m316 211c-58 0-105 47-105 105v30h105 105v-30c0-58-47-105-105-105z" fill="#f2f9ff"/><path d="m421 316c0-58-47-105-105-105v135h105z" class="b"/><path d="m316 331h-135v30h135 135v-30z" class="b"/><path d="m316 331h135v30h-135z" class="c"/><path d="m316 421h-105v30h105 105v-30z" fill="#ffd480"/><path d="m316 421h105v30h-105z" fill="#fabe2c"/></svg>